# xmcd
#
# Track frame offsets: 
#        150
#        14680
#        33342
#        54095
#        72734
#        84416
#        98542
#        112395
#        124994
#        142233
#        156851
#        167616
#        185660
#        202299
#
# Disc length: 2879 seconds
#
# Revision: 0
# Processed by: cddbd v1.5.2PL0 Copyright (c) Steve Scherf et al.
# Submitted via: ExactAudioCopy v1.0b3
#
DISCID=d20b3d0e
DTITLE=The Highwaymen - Playlist: The Very Best Of
DYEAR=2013
DGENRE=Country
TTITLE0=Silver Stallion
TTITLE1=American Remains
TTITLE2=Desperados Waiting For A Train
TTITLE3=Casey's Last Ride (Kris Kristofferson and Willie Nelson)
TTITLE4=Welfare Line
TTITLE5=The Ballad Of Forty Dollars (Johnny Cash and Waylon Jennings)
TTITLE6=Don't Cuss The Fiddlle (Waylon Jennings and Willie Nelson)
TTITLE7=Big River
TTITLE8=Against The Wind
TTITLE9=Eye Of The Storm (Kris Kristofferson and Willie Nelson)
TTITLE10=The Human Condition (Johnny Cash and Willie Nelson)
TTITLE11=Living Legend
TTITLE12=The Greatest Cowboy Of Them All (Waylon Jennings and Johnny Cas
TTITLE12=h)
TTITLE13=Highwayman
EXTD=
EXTT0=
EXTT1=
EXTT2=
EXTT3=
EXTT4=
EXTT5=
EXTT6=
EXTT7=
EXTT8=
EXTT9=
EXTT10=
EXTT11=
EXTT12=
EXTT13=
PLAYORDER=
